<?xml version="1.0" encoding="UTF-8" standalone="no"?>
<!-- Created with Inkscape (http://www.inkscape.org/) -->

<svg
   xmlns:dc="http://purl.org/dc/elements/1.1/"
   xmlns:cc="http://creativecommons.org/ns#"
   xmlns:rdf="http://www.w3.org/1999/02/22-rdf-syntax-ns#"
   xmlns:svg="http://www.w3.org/2000/svg"
   xmlns="http://www.w3.org/2000/svg"
   xmlns:sodipodi="http://sodipodi.sourceforge.net/DTD/sodipodi-0.dtd"
   xmlns:inkscape="http://www.inkscape.org/namespaces/inkscape"
   width="55.623943mm"
   height="63.499165mm"
   viewBox="0 0 55.623943 63.499165"
   version="1.1"
   id="svg8"
   inkscape:version="0.92.4 (5da689c313, 2019-01-14)"
   sodipodi:docname="rayo.svg">
  <defs
     id="defs2" />
  <sodipodi:namedview
     id="base"
     pagecolor="#ffffff"
     bordercolor="#666666"
     borderopacity="1.0"
     inkscape:pageopacity="0.0"
     inkscape:pageshadow="2"
     inkscape:zoom="0.70710678"
     inkscape:cx="64.229268"
     inkscape:cy="-3.774503"
     inkscape:document-units="mm"
     inkscape:current-layer="g828"
     showgrid="false"
     fit-margin-top="0"
     fit-margin-left="0"
     fit-margin-right="0"
     fit-margin-bottom="0"
     inkscape:window-width="1366"
     inkscape:window-height="746"
     inkscape:window-x="-8"
     inkscape:window-y="-8"
     inkscape:window-maximized="1" />
  <metadata
     id="metadata5">
    <rdf:RDF>
      <cc:Work
         rdf:about="">
        <dc:format>image/svg+xml</dc:format>
        <dc:type
           rdf:resource="http://purl.org/dc/dcmitype/StillImage" />
        <dc:title></dc:title>
      </cc:Work>
    </rdf:RDF>
  </metadata>
  <g
     inkscape:label="Capa 1"
     inkscape:groupmode="layer"
     id="layer1"
     transform="translate(-76.91444,-12.920717)">
    <g
       id="g828"
       transform="matrix(0.82915877,0,0,0.4668753,10.64554,-0.82124753)"
       style="fill:#000000;fill-opacity:1">
      <path
         style="fill:#000000;fill-opacity:1;stroke-width:0.26458332"
         d="m 79.923053,165.27166 c 0,-0.14336 3.383076,-12.82561 7.517945,-28.18278 4.134869,-15.35717 7.557916,-28.14658 7.606771,-28.42091 0.08024,-0.45061 -0.384013,-0.57846 -4.805966,-1.32346 -3.824178,-0.64429 -4.876456,-0.90744 -4.810963,-1.20311 0.04611,-0.20815 3.593696,-8.459302 7.883533,-18.335892 4.289838,-9.876591 7.764457,-17.983956 7.721377,-18.016367 -0.0431,-0.03241 -2.131438,-0.235617 -4.640802,-0.45157 -2.509365,-0.21595 -4.639805,-0.469963 -4.734311,-0.56447 -0.09451,-0.09451 1.839547,-8.984479 4.297897,-19.755496 4.089386,-17.917255 4.514756,-19.58367 4.998896,-19.583698 0.72236,-4e-5 45.90151,6.784031 46.0292,6.911714 0.056,0.05601 -5.90491,8.190582 -13.24649,18.076821 -9.10309,12.258308 -13.24116,18.031741 -13.01135,18.153446 0.18533,0.09816 3.31353,0.74798 6.95155,1.444051 3.63803,0.696071 6.68679,1.336442 6.77504,1.423045 0.0883,0.08661 -5.51838,7.836995 -12.45918,17.223088 -11.23284,15.190258 -12.55887,17.085028 -12.0667,17.242168 0.30411,0.0971 2.93418,0.43836 5.84459,0.75835 2.91042,0.32 5.31887,0.6051 5.35212,0.63356 0.058,0.0497 -40.479065,53.4658 -40.965668,53.98081 -0.149646,0.15839 -0.237489,0.15495 -0.237489,-0.009 z"
         id="path842"
         inkscape:connector-curvature="0" />
      <path
         style="fill:#000000;fill-opacity:1;stroke-width:0.26458332"
         d="m 80.037124,164.76503 c 0.103682,-0.43657 3.503988,-13.11672 7.556236,-28.17813 4.052248,-15.0614 7.407214,-27.61688 7.455479,-27.90105 0.08042,-0.4735 -0.321257,-0.58558 -4.807036,-1.34134 -2.927905,-0.49328 -4.872273,-0.93798 -4.838751,-1.10665 0.03082,-0.15509 3.582232,-8.402422 7.892022,-18.3274 4.30979,-9.924975 7.796916,-18.07575 7.749166,-18.112831 -0.0478,-0.03708 -2.139928,-0.244105 -4.649292,-0.460058 -2.509365,-0.21595 -4.637307,-0.467466 -4.728761,-0.558919 -0.19723,-0.197231 8.592373,-38.842146 8.913613,-39.19012 0.19867,-0.215214 44.47073,6.217645 45.93168,6.674007 0.52013,0.162477 -0.6962,1.890422 -12.77168,18.143667 -7.3406,9.88025 -13.28726,18.023386 -13.21478,18.095864 0.0725,0.07247 3.19172,0.743579 6.93164,1.491339 3.73993,0.747763 6.83276,1.47478 6.87296,1.615596 0.0402,0.140814 -5.56362,7.876026 -12.45292,17.189359 -9.97753,13.488166 -12.43779,16.969966 -12.09243,17.113376 0.23847,0.099 2.87436,0.43877 5.85753,0.75498 2.98318,0.31621 5.4485,0.59707 5.47849,0.62414 0.0566,0.0511 -40.783596,53.82183 -41.095357,54.10677 -0.09698,0.0886 -0.09149,-0.19604 0.01219,-0.6326 z"
         id="path840"
         inkscape:connector-curvature="0" />
      <path
         style="fill:#000000;fill-opacity:1;stroke-width:0.26458332"
         d="m 79.923053,165.36598 c 0,-0.0915 3.409755,-12.82522 7.577233,-28.29718 4.167478,-15.47197 7.590525,-28.29964 7.606771,-28.50593 0.02233,-0.28356 -1.147555,-0.57837 -4.794712,-1.20828 -2.653338,-0.45826 -4.86543,-0.88479 -4.915761,-0.94784 -0.05033,-0.0631 3.460035,-8.269582 7.800813,-18.236734 4.340778,-9.967152 7.892323,-18.193476 7.892323,-18.28072 0,-0.08724 -2.08413,-0.336661 -4.631399,-0.554265 -2.547269,-0.217604 -4.699277,-0.463521 -4.782239,-0.546484 -0.179421,-0.179421 8.612798,-38.855229 8.910388,-39.195575 0.18346,-0.209834 44.02411,6.161367 45.78443,6.653685 0.68135,0.190558 0.36393,0.646012 -12.65287,18.154881 -7.34347,9.877682 -13.2539,18.044789 -13.1343,18.14913 0.11959,0.104339 3.19401,0.758396 6.83203,1.453462 3.63802,0.695066 6.71394,1.354593 6.83537,1.465614 0.12143,0.111022 -5.43399,7.86538 -12.34539,17.231907 -6.91139,9.366529 -12.51608,17.080969 -12.45485,17.143209 0.11026,0.11206 10.10198,1.31855 11.04787,1.33401 0.3046,0.005 0.43868,0.14523 0.3528,0.36903 -0.11278,0.2939 -39.957871,52.89147 -40.705282,53.73306 -0.122774,0.13825 -0.223225,0.17651 -0.223225,0.085 z"
         id="path838"
         inkscape:connector-curvature="0" />
      <path
         style="fill:#000000;fill-opacity:1;stroke-width:0.26458332"
         d="m 80.006236,165.02961 c 1.32026,-4.69135 15.261658,-56.83716 15.206819,-56.87893 -0.04205,-0.032 -2.160054,-0.39079 -4.706668,-0.79724 -2.546615,-0.40645 -4.7381,-0.83607 -4.869967,-0.95471 -0.13793,-0.1241 3.108294,-7.921223 7.643406,-18.358733 4.33574,-9.978659 7.836914,-18.186618 7.780384,-18.239913 -0.0565,-0.05329 -2.179419,-0.291026 -4.717532,-0.528294 -2.538112,-0.237267 -4.656844,-0.47349 -4.708292,-0.524938 -0.130701,-0.130702 8.714754,-38.870628 8.935104,-39.13254 0.14364,-0.170736 46.27746,6.552534 46.43828,6.767641 0.0247,0.03309 -5.96059,8.140787 -13.30074,18.017103 -7.34015,9.876317 -13.24675,18.045546 -13.12579,18.153845 0.12097,0.1083 3.17613,0.777547 6.78924,1.48722 3.61312,0.709671 6.68733,1.363247 6.83157,1.452393 0.14424,0.08915 -5.3982,7.829431 -12.31655,17.200633 -6.91834,9.371203 -12.58215,17.104243 -12.58625,17.184543 -0.004,0.0803 2.61745,0.42652 5.82565,0.76941 4.00326,0.42785 5.79721,0.71693 5.7187,0.92152 -0.0971,0.25305 -40.471445,53.48026 -40.852711,53.85786 -0.07346,0.0728 -0.06656,-0.10583 0.01535,-0.39687 z"
         id="path836"
         inkscape:connector-curvature="0" />
      <path
         style="fill:#000000;fill-opacity:1;stroke-width:0.26458332"
         d="m 80.013709,165.02961 c 0.217545,-0.73092 14.916227,-55.39736 15.124778,-56.25115 l 0.168214,-0.68866 -4.658116,-0.7565 c -2.561964,-0.41607 -4.788855,-0.8373 -4.948648,-0.93606 -0.188766,-0.11666 2.423289,-6.422199 7.457171,-18.001714 4.261237,-9.802188 7.803192,-18.03052 7.871012,-18.285181 0.0851,-0.319466 -0.0298,-0.463304 -0.37056,-0.463934 -0.804675,-0.0016 -8.928121,-0.804508 -9.014737,-0.891122 -0.104603,-0.104603 8.812037,-39.042546 8.978777,-39.209285 0.0705,-0.07055 10.48749,1.422446 23.14876,3.317773 12.66127,1.895327 23.09157,3.446049 23.17846,3.446049 0.0869,0 -5.9082,8.16006 -13.32242,18.133467 -7.8637,10.578033 -13.34391,18.178067 -13.15281,18.240513 0.18017,0.05888 3.24462,0.665592 6.80988,1.348256 3.56526,0.682665 6.63614,1.322364 6.82417,1.421553 0.23639,0.124701 -3.50862,5.399487 -12.13819,17.096424 -6.86403,9.303841 -12.52764,17.040091 -12.58581,17.191661 -0.0671,0.17477 2.02609,0.5074 5.72204,0.90929 3.20528,0.34855 5.82598,0.70101 5.82377,0.78325 -0.002,0.0823 -8.10787,10.80563 -18.01259,23.82975 -24.055469,31.63151 -23.08192,30.36625 -22.903151,29.76562 z"
         id="path834"
         inkscape:connector-curvature="0" />
      <path
         style="fill:#000000;fill-opacity:1;stroke-width:0.26458332"
         d="m 80.013763,165.02961 c 0.347684,-1.13204 15.255124,-56.61217 15.255124,-56.77409 0,-0.0945 -2.087644,-0.5109 -4.639209,-0.92529 -2.551565,-0.41439 -4.765534,-0.8315 -4.919932,-0.92693 -0.175658,-0.10856 2.649898,-6.918342 7.549626,-18.195113 4.306691,-9.911891 7.830348,-18.142948 7.830348,-18.291242 0,-0.148291 -0.20836,-0.270031 -0.46302,-0.270534 -0.739742,-0.0016 -8.896914,-0.804161 -8.976033,-0.883279 -0.09501,-0.09501 8.829943,-39.076135 8.981373,-39.227566 0.13127,-0.131273 45.99212,6.712172 46.16944,6.889495 0.062,0.06198 -5.84154,8.127892 -13.11894,17.924248 -7.27739,9.796357 -13.24847,17.930619 -13.26906,18.07614 -0.0206,0.145521 3.06934,0.874612 6.86651,1.620202 3.79718,0.745591 6.95845,1.410116 7.02506,1.476722 0.0666,0.06661 -5.48558,7.720522 -12.33818,17.008706 -6.8526,9.288181 -12.51195,17.024871 -12.57633,17.192651 -0.0819,0.21353 1.63193,0.49523 5.71294,0.939 3.20649,0.34867 5.82658,0.69855 5.82242,0.7775 -0.004,0.079 -9.24767,12.28792 -20.54112,27.13105 -11.293446,14.84312 -20.460405,26.74937 -20.371017,26.45833 z"
         id="path832"
         inkscape:connector-curvature="0" />
      <path
         style="fill:#000000;fill-opacity:1;stroke-width:0.26458332"
         d="m 87.750159,136.6608 c 2.536392,-9.51877 5.155484,-19.01729 7.556542,-28.571 -3.374097,-1.49455 -12.708788,0.30384 -8.15691,-5.51863 4.64887,-11.002778 9.538291,-21.902901 14.166359,-32.914153 -3.366578,-1.255301 -12.043748,1.444682 -8.798785,-4.594983 2.697048,-11.866304 5.369974,-23.739049 8.185815,-35.577639 15.4123,2.181441 30.81048,4.480292 46.18808,6.894291 -8.73803,12.173428 -17.88034,24.054099 -26.63056,36.218786 4.5827,0.981482 9.20652,1.765472 13.77958,2.792399 -3.11868,5.616658 -7.46869,10.622285 -11.17234,15.926358 -4.5151,6.162306 -9.10757,12.271191 -13.498,18.522841 2.98258,1.22821 9.61297,-0.0199 10.83922,2.20748 -12.77788,17.70013 -26.289109,34.86477 -39.45411,52.27928 -0.729536,-0.23104 1.510199,-6.26419 1.904598,-8.60807 1.680682,-6.35662 3.381623,-12.70787 5.090511,-19.05696 z"
         id="path830"
         inkscape:connector-curvature="0" />
    </g>
  </g>
</svg>
